<svg xmlns="http://www.w3.org/2000/svg" version="1.1" xmlns:xlink="http://www.w3.org/1999/xlink" width="512" height="512" x="0" y="0" viewBox="0 0 24 24" style="enable-background:new 0 0 512 512" xml:space="preserve" class=""><g transform="matrix(0.9400000000000003,0,0,0.9400000000000003,0.719999962002035,0.7199421189213115)"><path d="M13.5 2.115V1.5a1.5 1.5 0 0 0-3 0v.615a10.968 10.968 0 0 0-7.214 17.572A3.526 3.526 0 0 0 2 22.5a1.5 1.5 0 0 0 3 0 .641.641 0 0 1 .455-.68 10.917 10.917 0 0 0 13.087 0 .641.641 0 0 1 .458.68 1.5 1.5 0 0 0 3 0 3.526 3.526 0 0 0-1.286-2.813A10.968 10.968 0 0 0 13.5 2.115zM4 13a8 8 0 1 1 8 8 8.009 8.009 0 0 1-8-8zM19.5 0a1.5 1.5 0 0 0 0 3 1.361 1.361 0 0 1 1.459 1.5 1.5 1.5 0 0 0 3 0A4.333 4.333 0 0 0 19.5 0zM3.041 4.5A1.361 1.361 0 0 1 4.5 3a1.5 1.5 0 0 0 0-3A4.333 4.333 0 0 0 .041 4.5a1.5 1.5 0 0 0 3 0z" fill="#353535" opacity="1" data-original="#000000" class=""></path><path d="M13.53 12.379V8.5a1.5 1.5 0 0 0-1.5-1.5 1.5 1.5 0 0 0-1.5 1.5v4.293a2 2 0 0 0 .586 1.414L12.909 16a1.5 1.5 0 0 0 2.121-2.121z" fill="#353535" opacity="1" data-original="#000000" class=""></path></g></svg>