<svg xmlns="http://www.w3.org/2000/svg" version="1.1" xmlns:xlink="http://www.w3.org/1999/xlink" width="512" height="512" x="0" y="0" viewBox="0 0 64 64" style="enable-background:new 0 0 512 512" xml:space="preserve" class=""><g><path d="M19.743 22.5a.5.5 0 0 1 .5-.5h1.772a.5.5 0 1 1 0 1h-1.772a.5.5 0 0 1-.5-.5zm9.359.5h1.771a.5.5 0 0 0 0-1h-1.771a.5.5 0 0 0 0 1zm-4.43 0h1.772a.5.5 0 0 0 0-1h-1.772a.5.5 0 0 0 0 1zm-8.859 0h1.772a.5.5 0 0 0 0-1h-1.772a.5.5 0 1 0 0 1zm17.41 6.398v25.037a3.944 3.944 0 0 1-3.939 3.94H17.331a3.945 3.945 0 0 1-3.94-3.94V29.398a3.903 3.903 0 0 1 3.898-3.898h12.036a3.903 3.903 0 0 1 3.899 3.898zm-2 0a1.9 1.9 0 0 0-1.898-1.898H17.29a1.9 1.9 0 0 0-1.898 1.898v25.037a1.942 1.942 0 0 0 1.94 1.94h11.953a1.942 1.942 0 0 0 1.94-1.94zm3.174-10.453a11.15 11.15 0 0 1 2.827 7.425v28.338a7.674 7.674 0 0 1-7.666 7.667h-12.5a7.675 7.675 0 0 1-7.667-7.667V26.37a11.155 11.155 0 0 1 2.826-7.425l4.312-4.841V11.5H15.37a2.607 2.607 0 0 1-2.604-2.604V4.104A2.607 2.607 0 0 1 15.37 1.5h15.875a2.607 2.607 0 0 1 2.604 2.604v4.792a2.607 2.607 0 0 1-2.604 2.604h-1.16v2.604zM15.37 9.5h15.875a.604.604 0 0 0 .604-.604V4.104a.604.604 0 0 0-.604-.604H15.37a.605.605 0 0 0-.604.604v4.792a.605.605 0 0 0 .604.604zm3.16 2v2h9.555v-2zm16.694 14.87a9.154 9.154 0 0 0-.65-3.379c-.015.002-.028.009-.043.009h-1a.5.5 0 0 1 0-1h.574a9.149 9.149 0 0 0-1.202-1.725L28.65 15.5H17.964l-4.253 4.775A9.16 9.16 0 0 0 12.51 22h.646a.5.5 0 0 1 0 1h-1a.48.48 0 0 1-.11-.022 9.152 9.152 0 0 0-.655 3.392v28.339a5.673 5.673 0 0 0 5.667 5.666h12.5a5.673 5.673 0 0 0 5.666-5.667zm14.99 13.353 1.544 17.705a4.666 4.666 0 1 1-9.297 0l1.543-17.705c-2.655-1.499-4.395-4.817-4.395-8.514 0-5.158 3.365-9.354 7.5-9.354s7.5 4.196 7.5 9.354c0 3.697-1.739 7.015-4.394 8.514zm2.395-8.514c0-4.056-2.467-7.354-5.5-7.354s-5.5 3.298-5.5 7.354c0 3.207 1.544 6.021 3.843 7.003a.999.999 0 0 1 .604 1.006l-1.603 18.384a2.639 2.639 0 0 0 .69 2.033 2.726 2.726 0 0 0 3.931 0 2.638 2.638 0 0 0 .692-2.033l-1.603-18.384a.999.999 0 0 1 .604-1.006c2.298-.983 3.842-3.797 3.842-7.003z" data-name="Layer 8" fill="#353535" opacity="1" data-original="#000000" class=""></path></g></svg>