<svg xmlns="http://www.w3.org/2000/svg" version="1.1" xmlns:xlink="http://www.w3.org/1999/xlink" width="512" height="512" x="0" y="0" viewBox="0 0 512 512" style="enable-background:new 0 0 512 512" xml:space="preserve" class=""><g><path d="M472.196 39.468c-52.654-52.625-138.301-52.625-190.955 0L169.915 150.794l126.394 126.394c26.014-21.663 58.995-35.227 95.412-35.227 20.888 0 40.765 4.339 58.851 12.087l21.624-23.624c52.639-52.64 52.639-138.301 0-190.956zM275.27 298.577 148.7 172.008 39.742 281.073c-52.639 52.639-52.639 138.301 0 190.955 52.653 52.622 139.3 53.626 191.955.999l22.088-22.194c-7.748-18.086-12.087-37.963-12.087-58.851.001-35.482 12.901-67.691 33.572-93.405zM271.703 391.983c0 61.144 45.893 111.045 105.015 118.504V273.478c-59.122 7.459-105.015 57.358-105.015 118.505zM406.722 273.478v237.009c59.122-7.459 105.015-57.36 105.015-118.505s-45.892-111.045-105.015-118.504z" fill="#353535" opacity="1" data-original="#000000" class=""></path></g></svg>