<svg xmlns="http://www.w3.org/2000/svg" version="1.1" xmlns:xlink="http://www.w3.org/1999/xlink" width="512" height="512" x="0" y="0" viewBox="0 0 512.012 512.012" style="enable-background:new 0 0 512 512" xml:space="preserve"><g><path d="M270.956 301h-180c-8.284 0-15 6.716-15 15s6.716 15 15 15h180c8.284 0 15-6.716 15-15s-6.716-15-15-15zM90.956 271h150.05c8.284 0 15-6.716 15-15s-6.716-15-15-15H90.956c-8.284 0-15 6.716-15 15s6.716 15 15 15z" fill="#353535" opacity="1" data-original="#000000"></path><path d="M451.006 165c0-57.897-47.103-105-105-105-53.496 0-97.772 40.215-104.195 92H75.006c-41.355 0-75 33.645-75 75v122c0 36.554 26.287 67.084 60.95 73.68V497c0 13.309 16.044 19.958 25.487 10.725L172.071 424h113.885c41.355 0 75-33.645 75-75v-80.069c50.841-7.28 90.05-51.109 90.05-103.931zm-165.05 229h-120c-3.92 0-7.684 1.535-10.487 4.275l-64.513 63.08V409c0-8.284-6.716-15-15-15h-.95c-24.813 0-45-20.187-45-45V227c0-24.813 20.187-45 45-45h167.383c7.35 44.953 43.343 80.397 88.567 86.917V349c0 24.813-20.187 45-45 45zm60.05-154c-41.355 0-75-33.645-75-75s33.645-75 75-75 75 33.645 75 75-33.645 75-75 75z" fill="#353535" opacity="1" data-original="#000000"></path><path d="m345.762 120.819-15 5c-7.859 2.62-12.106 11.115-9.487 18.974 3.494 10.48 14.13 10.227 14.23 10.26v39.896c0 8.284 6.716 15 15 15s15-6.716 15-15v-59.9c.001-10.225-10.031-17.464-19.743-14.23zM346.056 46.05c8.284 0 15-6.716 15-15V15c0-8.284-6.716-15-15-15s-15 6.716-15 15v16.05c0 8.284 6.716 15 15 15zM239.289 81.405c5.857 5.858 15.355 5.859 21.213 0 5.858-5.858 5.858-15.355 0-21.213l-11.349-11.349c-5.857-5.858-15.355-5.858-21.213 0s-5.858 15.355 0 21.213zM452.623 252.595c-5.857-5.858-15.355-5.858-21.213 0s-5.858 15.355 0 21.213l11.349 11.349c5.857 5.858 15.355 5.859 21.213 0 5.858-5.858 5.858-15.355 0-21.213zM497.006 152.1h-16.05c-8.284 0-15 6.716-15 15s6.716 15 15 15h16.05c8.284 0 15-6.716 15-15s-6.716-15-15-15zM452.764 81.546l11.349-11.349c5.858-5.858 5.858-15.355 0-21.213-5.857-5.858-15.355-5.858-21.213 0l-11.349 11.349c-5.858 5.858-5.858 15.355 0 21.213 5.857 5.857 15.356 5.858 21.213 0z" fill="#353535" opacity="1" data-original="#000000"></path></g></svg>