<svg xmlns="http://www.w3.org/2000/svg" version="1.1" xmlns:xlink="http://www.w3.org/1999/xlink" width="512" height="512" x="0" y="0" viewBox="0 0 512 512" style="enable-background:new 0 0 512 512" xml:space="preserve" class=""><g><path d="M454.88 295.312c-31.696-14.407-73.1-22.605-117.132-23.263C353.52 244.678 362 213.241 362 181c0-48.047-18.727-93.392-52.731-127.68C275.17 18.936 229.972 0 182 0 82.464 0 0 81.777 0 181c0 88.888 65.638 164.086 151.063 178.498A50.794 50.794 0 0 0 151 362v60c0 26.255 20.479 49.946 57.663 66.708C241.984 503.728 285.786 512 332 512c95.689 0 180-35.907 180-90v-60c0-26.262-20.286-49.945-57.12-66.688zM30 181C30 99.149 99.607 30 182 30c35.907 0 68.903 12.772 94.754 34.033L64.265 276.522C42.835 250.374 30 217.024 30 181zm131.482 149.727c-28.673-3.73-54.768-15.53-76.016-32.98L297.928 85.285C319.208 111.356 332 144.702 332 181c0 33.6-10.988 66.119-31.053 92.27-47.229 3.891-112.891 19.786-139.465 57.457zm79.224-15.503 143.838 102.741C367.941 420.617 350.23 422 332 422c-86.424 0-151-31.677-151-60 0-16.87 22.914-34.929 59.706-46.776zM482 422c0 27.493-61.004 60-150 60-86.424 0-151-31.677-151-60v-9.238C207.22 432.288 258.887 452 332 452c73.044 0 124.093-19.69 150-39.028V422zm-58.703-13.222L279.518 306.079c16.19-2.6 33.825-4.079 52.482-4.079 89.028 0 150 32.526 150 60 0 22.435-36.61 39.56-58.703 46.778z" fill="#353535" opacity="1" data-original="#000000" class=""></path></g></svg>