<svg xmlns="http://www.w3.org/2000/svg" version="1.1" xmlns:xlink="http://www.w3.org/1999/xlink" width="512" height="512" x="0" y="0" viewBox="0 0 32 32" style="enable-background:new 0 0 512 512" xml:space="preserve"><g><path d="M30.062 15.5c0 7.444-6.056 13.5-13.5 13.5-6.553 0-12.039-4.718-13.246-10.934l-.448.57A1 1 0 1 1 1.296 17.4l1.979-2.518a.999.999 0 0 1 1.406-.166l2.538 2.008a.998.998 0 0 1 .164 1.404.996.996 0 0 1-1.404.164l-.692-.547C6.338 23.01 11 27 16.562 27c6.341 0 11.5-5.159 11.5-11.5S22.902 4 16.562 4a1 1 0 1 1 0-2c7.444 0 13.5 6.056 13.5 13.5z" fill="#353535" opacity="1" data-original="#000000"></path><path d="M12.293 3.432a1 1 0 0 1 1.934-.51l.135.511a1 1 0 0 1-1.934.51zM9.307 4.943a1.001 1.001 0 0 1 1.738-.99l.261.458a1.001 1.001 0 0 1-1.738.99zM6.844 7.196a.999.999 0 1 1 1.414-1.414l.354.354A.999.999 0 1 1 7.198 7.55zM4.646 8.638a1 1 0 0 1 1.36-.386l.448.25a1 1 0 1 1-.973 1.746l-.448-.25a1 1 0 0 1-.387-1.36zM3.272 11.938c.144-.535.698-.85 1.226-.706l.5.135a1 1 0 1 1-.52 1.932l-.5-.135a1 1 0 0 1-.706-1.226zM11 9a1 1 0 0 0 .999 1c.003.893.059 2.042.305 2.635.425 1.018 1.418 1.937 2.575 2.865-1.157.928-2.15 1.847-2.575 2.866-.247.592-.302 1.742-.305 2.634A.999.999 0 1 0 12 23h9a1 1 0 1 0 .001-2c-.003-.893-.059-2.042-.306-2.635-.425-1.018-1.418-1.937-2.575-2.865 1.157-.928 2.15-1.847 2.575-2.866.247-.592.302-1.742.306-2.634A1 1 0 0 0 21 8h-9a1 1 0 0 0-1 1zm8 12h-5c.005-.872.063-1.645.151-1.865.285-.683 1.305-1.547 2.35-2.367 1.044.82 2.065 1.684 2.349 2.366.088.22.145.993.15 1.866zm-2.5-6.768c-1.044-.82-2.065-1.684-2.349-2.366-.089-.22-.146-.993-.151-1.866h5c-.005.872-.063 1.645-.151 1.865-.284.684-1.305 1.547-2.349 2.367z" fill="#353535" opacity="1" data-original="#000000"></path></g></svg>