<svg xmlns="http://www.w3.org/2000/svg" version="1.1" xmlns:xlink="http://www.w3.org/1999/xlink" width="512" height="512" x="0" y="0" viewBox="0 0 24 24" style="enable-background:new 0 0 512 512" xml:space="preserve" class=""><g transform="matrix(0.9400000000000003,0,0,0.9400000000000003,0.7200407409667928,0.8224328327178885)"><path d="M17.244 4a2 2 0 0 0-3.414 1.414V7H9a9.01 9.01 0 0 0-9 9v7a1 1 0 0 0 2 0 6.006 6.006 0 0 1 6-6h5.83v1.586A2 2 0 0 0 17.244 20l5.879-5.879a3 3 0 0 0 0-4.242Z" fill="#353535" opacity="1" data-original="#000000" class=""></path></g></svg>