<svg xmlns="http://www.w3.org/2000/svg" version="1.1" xmlns:xlink="http://www.w3.org/1999/xlink" width="512" height="512" x="0" y="0" viewBox="0 0 512 512" style="enable-background:new 0 0 512 512" xml:space="preserve" class=""><g><path d="m506.9 85.14-80-80a17.62 17.62 0 0 0-24.8 0l-9.15 9.15a17.61 17.61 0 0 0 0 24.79l9.05 9.08-44.15 44.18-22.42-22.42a17.57 17.57 0 0 0-24.8 0l-9.73 9.73a17.62 17.62 0 0 0 0 24.8l7.28 7.28-143.93 143.93a37.62 37.62 0 0 0 0 53.14l1 1-13.68 13.68c-2.92-3.89-9.08-4.45-12.18-.47L104 366.52a29.38 29.38 0 0 0-2.58 33.48L2.2 499.17a7.52 7.52 0 0 0 10.63 10.63l99.22-99.22a29.35 29.35 0 0 0 33.43-2.58L189 372.57c4-3.1 3.43-9.26-.47-12.18l13.68-13.68 1 1c14 14.58 39.15 14.58 53.14 0l143.92-143.89 7.28 7.28a17.62 17.62 0 0 0 24.8 0l9.73-9.73a17.57 17.57 0 0 0 0-24.8l-22.42-22.42L463.84 110l9.12 9.11a17.54 17.54 0 0 0 24.79 0l9.15-9.14a17.62 17.62 0 0 0 0-24.83zM288.77 152.4l70.83 70.83-12.1 12.1-70.83-70.83zM136 396.31a14.38 14.38 0 0 1-19.3-1 14.4 14.4 0 0 1-1-19.31l30.14-37 .46.46 26.24 26.24.46.46zm41.87-46.55-15.62-15.62 13.67-13.67 15.62 15.62zm67.85-12.64c-8.39 8.75-23.49 8.75-31.89 0l-38.94-38.94a22.58 22.58 0 0 1 0-31.89l12.53-12.53 15.58 15.6a7.52 7.52 0 0 0 10.63-10.63L198 243.14l14-14 15.6 15.59a7.52 7.52 0 0 0 10.63-10.63l-15.6-15.59 14-14L252.32 220A7.52 7.52 0 0 0 263 209.41l-15.6-15.59 18.6-18.69L336.87 246zm143.92-143.93-19.41 19.41-70.83-70.83 19.41-19.41 20.19 20.2zm41.81-2.45-9.73 9.73c-1.4 1-2.14 1-3.54 0L311.53 93.82c-1-1.4-1-2.14 0-3.54l9.73-9.73a2.52 2.52 0 0 1 3.54 0L431.45 187.2a2.52 2.52 0 0 1 0 3.54zM409 143.52 368.48 103l44.18-44.18 40.55 40.55zm87.24-44.21-9.14 9.15a2.53 2.53 0 0 1-3.55 0l-80-80c-1-1.41-1-2.14 0-3.55l9.15-9.14c1.4-1 2.14-1 3.54 0l80 80c1.07 1.4 1.07 2.14.03 3.54z" data-name="22 Syringe" fill="#353535" opacity="1" data-original="#000000" class=""></path></g></svg>