<svg xmlns="http://www.w3.org/2000/svg" version="1.1" xmlns:xlink="http://www.w3.org/1999/xlink" width="512" height="512" x="0" y="0" viewBox="0 0 512 512" style="enable-background:new 0 0 512 512" xml:space="preserve" class=""><g><path d="M267.82 253.649c-51.872 51.866-55.575 133.648-11.134 189.79L457.6 242.531c-56.147-44.442-137.915-40.74-189.78 11.118zM481.233 266.161l-200.914 200.91c56.153 44.456 137.923 40.754 189.789-11.127 51.865-51.859 55.567-133.64 11.125-189.783zM287.901 26.091C224.414-3.55 148.911 23.886 119.27 87.38l-41.424 88.729 151.5 70.734a178.317 178.317 0 0 1 14.843-16.828c16.833-16.831 36.478-29.869 58.39-38.754a175.504 175.504 0 0 1 52.753-12.397c18.735-59.732-9.157-125.566-67.431-152.773zm-33.998 72.818c-23.239-10.846-50.969-.768-61.815 22.463l-30.284-14.136c18.64-39.932 66.297-57.251 106.232-38.612l-14.133 30.285z" fill="#353535" opacity="1" data-original="#000000" class=""></path><path d="M205.417 421.185c-8.576-21.148-12.924-43.484-12.923-66.388 0-22.906 4.35-45.242 12.927-66.389a176.264 176.264 0 0 1 5.943-13.076L63.708 206.393 11.937 317.284c-29.633 63.494-2.197 138.982 61.288 168.622 52.638 24.581 113.528 9.915 149.696-32.003a175.066 175.066 0 0 1-17.504-32.718z" fill="#353535" opacity="1" data-original="#000000" class=""></path></g></svg>