<svg xmlns="http://www.w3.org/2000/svg" version="1.1" xmlns:xlink="http://www.w3.org/1999/xlink" width="512" height="512" x="0" y="0" viewBox="0 0 24 24" style="enable-background:new 0 0 512 512" xml:space="preserve" class=""><g transform="matrix(1,0,0,1,3.552713678800501e-15,3.552713678800501e-15)"><path d="m23.34 9.48-3.5-6A5.017 5.017 0 0 0 15.521 1H8.449c-1.771 0-3.426.95-4.319 2.48l-3.499 6a5.006 5.006 0 0 0 0 5.039l3.5 6a5.017 5.017 0 0 0 4.319 2.48h7.072c1.771 0 3.426-.95 4.319-2.48l3.5-6a5.006 5.006 0 0 0 0-5.039ZM11 7a1 1 0 1 1 2 0v5.5a1 1 0 1 1-2 0V7Zm1 11a1.5 1.5 0 1 1 .001-3.001A1.5 1.5 0 0 1 12 18Z" fill="#353535" opacity="1" data-original="#000000" class=""></path></g></svg>